<?xml version="1.0" encoding="UTF-8" standalone="no"?>
<svg
   xmlns:dc="http://purl.org/dc/elements/1.1/"
   xmlns:cc="http://creativecommons.org/ns#"
   xmlns:rdf="http://www.w3.org/1999/02/22-rdf-syntax-ns#"
   xmlns:svg="http://www.w3.org/2000/svg"
   xmlns="http://www.w3.org/2000/svg"
   xmlns:xlink="http://www.w3.org/1999/xlink"
   xmlns:sodipodi="http://sodipodi.sourceforge.net/DTD/sodipodi-0.dtd"
   xmlns:inkscape="http://www.inkscape.org/namespaces/inkscape"
   height="300"
   id="Layer_1"
   version="1.1"
   viewBox="0 0 300 300"
   width="300"
   xml:space="preserve"
   inkscape:version="0.48.4 r9939"
   sodipodi:docname="caja.svg"
   inkscape:export-filename="/var/www/risto/ristorantino/Vendor/ristorantino/plugins/Risto/webroot/css/ristorantino/home/caja.png"
   inkscape:export-xdpi="37.970001"
   inkscape:export-ydpi="37.970001"><metadata
     id="metadata12"><rdf:RDF><cc:Work
         rdf:about=""><dc:format>image/svg+xml</dc:format><dc:type
           rdf:resource="http://purl.org/dc/dcmitype/StillImage" /><dc:title></dc:title></cc:Work></rdf:RDF></metadata><sodipodi:namedview
     pagecolor="#ffffff"
     bordercolor="#666666"
     borderopacity="1"
     objecttolerance="10"
     gridtolerance="10"
     guidetolerance="10"
     inkscape:pageopacity="0"
     inkscape:pageshadow="2"
     inkscape:window-width="1050"
     inkscape:window-height="1628"
     id="namedview10"
     showgrid="false"
     inkscape:zoom="0.65186406"
     inkscape:cx="82.861033"
     inkscape:cy="9.4169788"
     inkscape:window-x="0"
     inkscape:window-y="0"
     inkscape:window-maximized="1"
     inkscape:current-layer="g6010" /><defs
     id="defs12"><linearGradient
       inkscape:collect="always"
       id="linearGradient4842"><stop
         style="stop-color:#838383;stop-opacity:1;"
         offset="0"
         id="stop4844" /><stop
         style="stop-color:#838383;stop-opacity:0;"
         offset="1"
         id="stop4846" /></linearGradient><linearGradient
       inkscape:collect="always"
       id="linearGradient4834"><stop
         style="stop-color:#838383;stop-opacity:1;"
         offset="0"
         id="stop4836" /><stop
         style="stop-color:#838383;stop-opacity:0;"
         offset="1"
         id="stop4838" /></linearGradient><linearGradient
       inkscape:collect="always"
       id="linearGradient4560"><stop
         style="stop-color:#000009;stop-opacity:1;"
         offset="0"
         id="stop4562" /><stop
         style="stop-color:#000009;stop-opacity:0;"
         offset="1"
         id="stop4564" /></linearGradient><linearGradient
       id="linearGradient4431"><stop
         style="stop-color:#7190da;stop-opacity:1;"
         offset="0"
         id="stop4433" /><stop
         style="stop-color:#1b3269;stop-opacity:1;"
         offset="1"
         id="stop4435" /></linearGradient><linearGradient
       id="linearGradient4308"><stop
         style="stop-color:#dddad5;stop-opacity:1;"
         offset="0"
         id="stop4310" /><stop
         style="stop-color:#6d665a;stop-opacity:1;"
         offset="1"
         id="stop4312" /></linearGradient><linearGradient
       id="linearGradient4270"><stop
         style="stop-color:#8d95c4;stop-opacity:1;"
         offset="0"
         id="stop4272" /><stop
         style="stop-color:#140e36;stop-opacity:1;"
         offset="1"
         id="stop4274" /></linearGradient><linearGradient
       id="linearGradient4262"><stop
         style="stop-color:#4c1413;stop-opacity:1;"
         offset="0"
         id="stop4264" /><stop
         style="stop-color:#db706e;stop-opacity:1;"
         offset="1"
         id="stop4266" /></linearGradient><linearGradient
       id="linearGradient4252"><stop
         style="stop-color:#244289;stop-opacity:1;"
         offset="0"
         id="stop4254" /><stop
         id="stop4260"
         offset="0.5"
         style="stop-color:#244289;stop-opacity:0.49803922;" /><stop
         style="stop-color:#244289;stop-opacity:0;"
         offset="1"
         id="stop4256" /></linearGradient><linearGradient
       id="linearGradient3759"><stop
         id="stop4226"
         offset="0"
         style="stop-color:#331718;stop-opacity:1;" /><stop
         style="stop-color:#250a0a;stop-opacity:1"
         offset="1"
         id="stop3763" /></linearGradient><filter
       id="filter4346"
       inkscape:label="Quadritone fantasy"
       inkscape:menu="Color"
       inkscape:menu-tooltip="Replace hue by two colors"
       height="1"
       width="1"
       y="0"
       x="0"
       color-interpolation-filters="sRGB"><feComposite
         id="feComposite4386"
         operator="over" /><feBlend
         blend="normal"
         id="feBlend4384"
         mode="darken" /><feColorMatrix
         id="feColorMatrix4348"
         type="saturate"
         values="1"
         result="result2" /><feColorMatrix
         id="feColorMatrix4350"
         result="result1"
         values="150.66666666666666"
         type="hueRotate"
         in="result2" /><feColorMatrix
         id="feColorMatrix4352"
         values="1 -1 1 0 0 0 1 0 0 0 1 -1 1 0 0 0 0 0 1 0 "
         type="matrix" /><feColorMatrix
         id="feColorMatrix4354"
         values="300"
         type="hueRotate"
         result="result3" /></filter><filter
       id="filter4382"
       inkscape:label="filtro2" /><radialGradient
       inkscape:collect="always"
       xlink:href="#linearGradient4431"
       id="radialGradient4437"
       cx="149.17841"
       cy="302.54407"
       fx="149.17841"
       fy="302.54407"
       r="150"
       gradientTransform="matrix(1.5429592,-0.0243813,0.02671335,1.6905401,-89.342894,-210.32953)"
       gradientUnits="userSpaceOnUse" /><linearGradient
       inkscape:collect="always"
       xlink:href="#linearGradient4560"
       id="linearGradient4566"
       x1="123.38982"
       y1="321.66964"
       x2="156.6348"
       y2="321.75189"
       gradientUnits="userSpaceOnUse" /><linearGradient
       inkscape:collect="always"
       xlink:href="#linearGradient4560-7"
       id="linearGradient4566-0"
       x1="123.38982"
       y1="321.66965"
       x2="156.6348"
       y2="321.75189"
       gradientUnits="userSpaceOnUse" /><linearGradient
       inkscape:collect="always"
       id="linearGradient4560-7"><stop
         style="stop-color:#000009;stop-opacity:1;"
         offset="0"
         id="stop4562-2" /><stop
         style="stop-color:#000009;stop-opacity:0;"
         offset="1"
         id="stop4564-6" /></linearGradient><linearGradient
       gradientTransform="matrix(-1,0,0,1,307.27068,-0.05429188)"
       y2="321.75189"
       x2="156.6348"
       y1="321.66965"
       x1="123.38982"
       gradientUnits="userSpaceOnUse"
       id="linearGradient4583"
       xlink:href="#linearGradient4560-7"
       inkscape:collect="always" /><linearGradient
       inkscape:collect="always"
       xlink:href="#linearGradient4560-2"
       id="linearGradient4566-05"
       x1="123.38982"
       y1="321.66965"
       x2="156.6348"
       y2="321.75189"
       gradientUnits="userSpaceOnUse" /><linearGradient
       inkscape:collect="always"
       id="linearGradient4560-2"><stop
         style="stop-color:#000009;stop-opacity:1;"
         offset="0"
         id="stop4562-7" /><stop
         style="stop-color:#000009;stop-opacity:0;"
         offset="1"
         id="stop4564-67" /></linearGradient><linearGradient
       gradientTransform="translate(59.37339,0.3185899)"
       y2="321.75189"
       x2="156.6348"
       y1="321.66965"
       x1="123.38982"
       gradientUnits="userSpaceOnUse"
       id="linearGradient4583-7"
       xlink:href="#linearGradient4560-2"
       inkscape:collect="always" /><linearGradient
       inkscape:collect="always"
       xlink:href="#linearGradient4560-28"
       id="linearGradient4566-5"
       x1="123.38982"
       y1="321.66965"
       x2="156.6348"
       y2="321.75189"
       gradientUnits="userSpaceOnUse" /><linearGradient
       inkscape:collect="always"
       id="linearGradient4560-28"><stop
         style="stop-color:#000009;stop-opacity:1;"
         offset="0"
         id="stop4562-24" /><stop
         style="stop-color:#000009;stop-opacity:0;"
         offset="1"
         id="stop4564-0" /></linearGradient><linearGradient
       gradientTransform="matrix(-1,0,0,1,247.96512,-1.0556664)"
       y2="321.75189"
       x2="156.6348"
       y1="321.66965"
       x1="123.38982"
       gradientUnits="userSpaceOnUse"
       id="linearGradient4583-2"
       xlink:href="#linearGradient4560-28"
       inkscape:collect="always" /><linearGradient
       inkscape:collect="always"
       xlink:href="#linearGradient4834"
       id="linearGradient4840"
       x1="122.1497"
       y1="360.89489"
       x2="125.60134"
       y2="360.89489"
       gradientUnits="userSpaceOnUse"
       gradientTransform="matrix(2.099944,0,0,1,-165.94704,-2.5064788)" /><linearGradient
       inkscape:collect="always"
       xlink:href="#linearGradient4842"
       id="linearGradient4848"
       x1="184.85449"
       y1="360.70312"
       x2="188.30613"
       y2="360.70312"
       gradientUnits="userSpaceOnUse"
       gradientTransform="matrix(1.7071068,0,0,1,-531.82261,-1.9175777)" /></defs><g
     id="g6010"
     transform="translate(0,-212)"><rect
       height="298.83817"
       id="rect2987"
       rx="37.5"
       ry="37.354771"
       style="fill:url(#radialGradient4437);fill-opacity:1;fill-rule:nonzero;stroke:none"
       width="300"
       x="0"
       y="213.16183" /><g
       transform="matrix(1.2092828,0,0,1.2092828,24.662339,230.58137)"
       id="g3"
       style="fill:#ffffff;opacity:0.86561265"><g
         id="g5"
         style="fill:#ffffff"><path
           inkscape:connector-curvature="0"
           d="M 155.734,0 C 145.96,0 137.015,4.467 131.098,12.133 125.182,4.467 116.238,0 106.463,0 96.691,0 87.746,4.467 81.827,12.133 75.909,4.467 66.964,0 57.192,0 39.9,0 25.832,14.068 25.832,31.359 c 0,16.387 12.633,29.873 28.672,31.237 v 85.673 c 0,1.486 1.205,2.688 2.688,2.688 h 98.542 c 1.48,0 2.688,-1.202 2.688,-2.688 V 62.591 C 174.463,61.226 187.094,47.74 187.094,31.354 187.094,14.068 173.025,0 155.734,0 z"
           id="path7"
           style="fill:#ffffff;filter:url(#filter4346);opacity:0.58119658" /><path
           inkscape:connector-curvature="0"
           d="m 171.188,199.115 c -10.792,0 -20.398,-15.838 -23.873,-22.305 -0.73,-1.974 -1.556,-3.644 -2.531,-5.093 -4.348,-6.398 -11.56,-10.219 -19.28,-10.219 -7.702,0 -14.74,3.752 -19.035,9.884 -4.294,-6.132 -11.331,-9.884 -19.034,-9.884 -7.73,0 -14.938,3.82 -19.286,10.229 -0.99,1.459 -1.812,3.129 -2.371,4.746 -3.629,6.812 -13.241,22.646 -24.034,22.646 -1.231,0 -2.299,0.836 -2.601,2.026 -0.307,1.197 0.236,2.436 1.318,3.03 0.653,0.351 16.27,8.749 33.816,8.749 11.901,0 21.791,-3.852 29.392,-11.453 0.066,-0.064 0.118,-0.127 0.174,-0.189 0.965,-0.966 1.848,-2.01 2.627,-3.134 0.784,1.124 1.661,2.168 2.63,3.129 0.052,0.067 0.113,0.13 0.175,0.194 7.604,7.602 17.483,11.453 29.394,11.453 0,0 0,0 0.005,0 17.539,0 33.15,-8.398 33.812,-8.749 1.075,-0.59 1.622,-1.844 1.316,-3.03 -0.315,-1.196 -1.385,-2.03 -2.614,-2.03 z"
           id="path9"
           style="fill:#000009;opacity:0.45512821" /></g></g><rect
       style="opacity:0.52569167;fill:url(#linearGradient4848);fill-opacity:1;stroke:none"
       id="rect4638"
       width="5.8923178"
       height="104.69975"
       x="-216.25624"
       y="306.43567"
       rx="17.459045"
       ry="0"
       transform="scale(-1,1)" /><rect
       style="opacity:0.44664031;fill:url(#linearGradient4840);fill-opacity:1;stroke:none"
       id="rect4638-7"
       width="7.24825"
       height="104.69975"
       x="90.560463"
       y="306.03854"
       rx="21.476698"
       ry="0" /><path
       sodipodi:type="arc"
       style="opacity:0.29644267;fill:#ffffff;fill-opacity:1;stroke:none"
       id="path4852"
       sodipodi:cx="144.96887"
       sodipodi:cy="62.987396"
       sodipodi:rx="25.312025"
       sodipodi:ry="13.80656"
       d="m 170.2809,62.987396 a 25.312025,13.80656 0 1 1 -50.62405,0 25.312025,13.80656 0 1 1 50.62405,0 z"
       transform="translate(-53.694915,183.79661)" /><path
       sodipodi:type="arc"
       style="opacity:0.29644267;fill:#ffffff;fill-opacity:1;stroke:none"
       id="path4852-5"
       sodipodi:cx="144.96887"
       sodipodi:cy="62.987396"
       sodipodi:rx="25.312025"
       sodipodi:ry="13.80656"
       d="m 170.2809,62.987396 a 25.312025,13.80656 0 1 1 -50.62405,0 25.312025,13.80656 0 1 1 50.62405,0 z"
       transform="matrix(0.83929391,0,0,1,87.142069,183.2499)" /><path
       sodipodi:type="arc"
       style="opacity:0.29644267;fill:#ffffff;fill-opacity:1;stroke:none"
       id="path4852-5-6"
       sodipodi:cx="144.96887"
       sodipodi:cy="62.987396"
       sodipodi:rx="25.312025"
       sodipodi:ry="13.80656"
       d="m 170.2809,62.987396 a 25.312025,13.80656 0 1 1 -50.62405,0 25.312025,13.80656 0 1 1 50.62405,0 z"
       transform="matrix(0.83929391,0,0,1,26.396305,183.24989)" /></g></svg>