<?xml version="1.0" encoding="UTF-8" standalone="no"?>
<svg
   xmlns:dc="http://purl.org/dc/elements/1.1/"
   xmlns:cc="http://creativecommons.org/ns#"
   xmlns:rdf="http://www.w3.org/1999/02/22-rdf-syntax-ns#"
   xmlns:svg="http://www.w3.org/2000/svg"
   xmlns="http://www.w3.org/2000/svg"
   xmlns:xlink="http://www.w3.org/1999/xlink"
   xmlns:sodipodi="http://sodipodi.sourceforge.net/DTD/sodipodi-0.dtd"
   xmlns:inkscape="http://www.inkscape.org/namespaces/inkscape"
   height="300"
   id="Layer_1"
   version="1.1"
   viewBox="0 0 300 300"
   width="300"
   xml:space="preserve"
   inkscape:version="0.48.4 r9939"
   sodipodi:docname="impresoras.svg"
   inkscape:export-filename="/var/www/risto/ristorantino/Vendor/ristorantino/plugins/Risto/webroot/css/ristorantino/home/impresoras.png"
   inkscape:export-xdpi="37.970001"
   inkscape:export-ydpi="37.970001"><metadata
     id="metadata12"><rdf:RDF><cc:Work
         rdf:about=""><dc:format>image/svg+xml</dc:format><dc:type
           rdf:resource="http://purl.org/dc/dcmitype/StillImage" /><dc:title></dc:title></cc:Work></rdf:RDF></metadata><sodipodi:namedview
     pagecolor="#ffffff"
     bordercolor="#666666"
     borderopacity="1"
     objecttolerance="10"
     gridtolerance="10"
     guidetolerance="10"
     inkscape:pageopacity="0"
     inkscape:pageshadow="2"
     inkscape:window-width="1050"
     inkscape:window-height="1655"
     id="namedview10"
     showgrid="false"
     inkscape:zoom="0.92187499"
     inkscape:cx="183.68135"
     inkscape:cy="-22.82257"
     inkscape:window-x="1366"
     inkscape:window-y="0"
     inkscape:window-maximized="1"
     inkscape:current-layer="g6010" /><defs
     id="defs12"><linearGradient
       inkscape:collect="always"
       id="linearGradient4560"><stop
         style="stop-color:#000009;stop-opacity:1;"
         offset="0"
         id="stop4562" /><stop
         style="stop-color:#000009;stop-opacity:0;"
         offset="1"
         id="stop4564" /></linearGradient><linearGradient
       id="linearGradient4431"><stop
         style="stop-color:#00ffff;stop-opacity:1;"
         offset="0"
         id="stop4433" /><stop
         style="stop-color:#00aabe;stop-opacity:1;"
         offset="1"
         id="stop4435" /></linearGradient><linearGradient
       id="linearGradient4308"><stop
         style="stop-color:#dddad5;stop-opacity:1;"
         offset="0"
         id="stop4310" /><stop
         style="stop-color:#6d665a;stop-opacity:1;"
         offset="1"
         id="stop4312" /></linearGradient><linearGradient
       id="linearGradient4270"><stop
         style="stop-color:#8d95c4;stop-opacity:1;"
         offset="0"
         id="stop4272" /><stop
         style="stop-color:#140e36;stop-opacity:1;"
         offset="1"
         id="stop4274" /></linearGradient><linearGradient
       id="linearGradient4262"><stop
         style="stop-color:#4c1413;stop-opacity:1;"
         offset="0"
         id="stop4264" /><stop
         style="stop-color:#db706e;stop-opacity:1;"
         offset="1"
         id="stop4266" /></linearGradient><linearGradient
       id="linearGradient4252"><stop
         style="stop-color:#244289;stop-opacity:1;"
         offset="0"
         id="stop4254" /><stop
         id="stop4260"
         offset="0.5"
         style="stop-color:#244289;stop-opacity:0.49803922;" /><stop
         style="stop-color:#244289;stop-opacity:0;"
         offset="1"
         id="stop4256" /></linearGradient><linearGradient
       id="linearGradient3759"><stop
         id="stop4226"
         offset="0"
         style="stop-color:#331718;stop-opacity:1;" /><stop
         style="stop-color:#250a0a;stop-opacity:1"
         offset="1"
         id="stop3763" /></linearGradient><filter
       id="filter4346"
       inkscape:label="Quadritone fantasy"
       inkscape:menu="Color"
       inkscape:menu-tooltip="Replace hue by two colors"
       height="1"
       width="1"
       y="0"
       x="0"
       color-interpolation-filters="sRGB"><feComposite
         id="feComposite4386"
         operator="over"
         in2="SourceGraphic"
         result="result1" /><feBlend
         blend="normal"
         id="feBlend4384"
         mode="darken"
         in2="result1" /><feColorMatrix
         id="feColorMatrix4348"
         type="saturate"
         values="1"
         result="result2" /><feColorMatrix
         id="feColorMatrix4350"
         result="result1"
         values="150.66666666666666"
         type="hueRotate"
         in="result2" /><feColorMatrix
         id="feColorMatrix4352"
         values="1 -1 1 0 0 0 1 0 0 0 1 -1 1 0 0 0 0 0 1 0 "
         type="matrix" /><feColorMatrix
         id="feColorMatrix4354"
         values="300"
         type="hueRotate"
         result="result3" /></filter><filter
       id="filter4382"
       inkscape:label="filtro2" /><linearGradient
       inkscape:collect="always"
       xlink:href="#linearGradient4560"
       id="linearGradient4566"
       x1="123.38982"
       y1="321.66964"
       x2="156.6348"
       y2="321.75189"
       gradientUnits="userSpaceOnUse" /><linearGradient
       inkscape:collect="always"
       xlink:href="#linearGradient4560-7"
       id="linearGradient4566-0"
       x1="123.38982"
       y1="321.66965"
       x2="156.6348"
       y2="321.75189"
       gradientUnits="userSpaceOnUse" /><linearGradient
       inkscape:collect="always"
       id="linearGradient4560-7"><stop
         style="stop-color:#000009;stop-opacity:1;"
         offset="0"
         id="stop4562-2" /><stop
         style="stop-color:#000009;stop-opacity:0;"
         offset="1"
         id="stop4564-6" /></linearGradient><linearGradient
       gradientTransform="matrix(-1,0,0,1,307.27068,-0.05429188)"
       y2="321.75189"
       x2="156.6348"
       y1="321.66965"
       x1="123.38982"
       gradientUnits="userSpaceOnUse"
       id="linearGradient4583"
       xlink:href="#linearGradient4560-7"
       inkscape:collect="always" /><linearGradient
       inkscape:collect="always"
       xlink:href="#linearGradient4560-2"
       id="linearGradient4566-05"
       x1="123.38982"
       y1="321.66965"
       x2="156.6348"
       y2="321.75189"
       gradientUnits="userSpaceOnUse" /><linearGradient
       inkscape:collect="always"
       id="linearGradient4560-2"><stop
         style="stop-color:#000009;stop-opacity:1;"
         offset="0"
         id="stop4562-7" /><stop
         style="stop-color:#000009;stop-opacity:0;"
         offset="1"
         id="stop4564-67" /></linearGradient><linearGradient
       gradientTransform="translate(59.37339,0.3185899)"
       y2="321.75189"
       x2="156.6348"
       y1="321.66965"
       x1="123.38982"
       gradientUnits="userSpaceOnUse"
       id="linearGradient4583-7"
       xlink:href="#linearGradient4560-2"
       inkscape:collect="always" /><linearGradient
       inkscape:collect="always"
       xlink:href="#linearGradient4560-28"
       id="linearGradient4566-5"
       x1="123.38982"
       y1="321.66965"
       x2="156.6348"
       y2="321.75189"
       gradientUnits="userSpaceOnUse" /><linearGradient
       inkscape:collect="always"
       id="linearGradient4560-28"><stop
         style="stop-color:#000009;stop-opacity:1;"
         offset="0"
         id="stop4562-24" /><stop
         style="stop-color:#000009;stop-opacity:0;"
         offset="1"
         id="stop4564-0" /></linearGradient><linearGradient
       gradientTransform="matrix(-1,0,0,1,247.96512,-1.0556664)"
       y2="321.75189"
       x2="156.6348"
       y1="321.66965"
       x1="123.38982"
       gradientUnits="userSpaceOnUse"
       id="linearGradient4583-2"
       xlink:href="#linearGradient4560-28"
       inkscape:collect="always" /><radialGradient
       inkscape:collect="always"
       xlink:href="#linearGradient4431-6"
       id="radialGradient4437-3"
       cx="149.17841"
       cy="302.54407"
       fx="149.17841"
       fy="302.54407"
       r="150"
       gradientTransform="matrix(1.5429592,-0.0243813,0.02671335,1.6905401,-89.342894,-210.32953)"
       gradientUnits="userSpaceOnUse" /><linearGradient
       id="linearGradient4431-6"><stop
         style="stop-color:#00cde7;stop-opacity:1;"
         offset="0"
         id="stop4433-7" /><stop
         style="stop-color:#00475a;stop-opacity:1;"
         offset="1"
         id="stop4435-5" /></linearGradient><radialGradient
       r="150"
       fy="380.72775"
       fx="148.58759"
       cy="380.72775"
       cx="148.58759"
       gradientTransform="matrix(1.0460039,-0.00812954,0.00745224,0.95885536,-10.146867,-9.75447)"
       gradientUnits="userSpaceOnUse"
       id="radialGradient3894"
       xlink:href="#linearGradient4431-6"
       inkscape:collect="always" /><clipPath
       clipPathUnits="userSpaceOnUse"
       id="clipPath3913"><rect
         height="298.83817"
         id="rect3915"
         rx="37.5"
         ry="37.354771"
         style="fill:url(#radialGradient3917);fill-opacity:1;fill-rule:nonzero;stroke:none"
         width="300"
         x="0"
         y="213.16183" /></clipPath><radialGradient
       inkscape:collect="always"
       xlink:href="#linearGradient4431"
       id="radialGradient3917"
       gradientUnits="userSpaceOnUse"
       gradientTransform="matrix(1.5429592,-0.0243813,0.02671335,1.6905401,-89.342894,-210.32953)"
       cx="149.17841"
       cy="302.54407"
       fx="149.17841"
       fy="302.54407"
       r="150" /><filter
       id="filter4959"
       inkscape:menu-tooltip="Make the lightest parts of the object progressively transparent"
       inkscape:menu="Transparency utilities"
       inkscape:label="Light eraser"
       height="1"
       width="1"
       y="0"
       x="0"
       color-interpolation-filters="sRGB"><feColorMatrix
         id="feColorMatrix4961"
         result="result14"
         type="luminanceToAlpha"
         in="SourceGraphic" /><feComposite
         id="feComposite4963"
         in2="result14"
         in="SourceGraphic"
         result="fbSourceGraphic"
         operator="out" /><feBlend
         id="feBlend4965"
         in2="fbSourceGraphic"
         mode="normal"
         result="result15" /></filter></defs><g
     id="g6010"
     transform="translate(0,-212)"><rect
       height="298.83817"
       id="rect2987-3"
       rx="37.5"
       ry="37.354771"
       style="fill:url(#radialGradient3894);fill-opacity:1;fill-rule:nonzero;stroke:none;opacity:0.82608696000000004"
       width="300"
       x="0.28310645"
       y="213.35933" /><path
       style="fill:#00ffff;fill-opacity:1;filter:url(#filter4959);opacity:0.24901186"
       inkscape:connector-curvature="0"
       d="m 169.25891,222.25932 c 20.87802,2.65833 40.36475,9.7867 57.4662,20.37236 -3.16399,2.43006 -6.33376,4.88469 -9.45585,7.36965 -3.03975,2.59043 -6.11995,5.15629 -9.13802,7.79585 l -8.52112,7.90854 c -1.97929,-1.31039 -4.36457,-2.07755 -6.91599,-2.07755 -1.09078,0 -2.13678,0.14881 -3.12787,0.40164 -0.40454,-0.69926 -0.79172,-1.40429 -1.18325,-2.12088 -2.14545,-4.3458 -4.44838,-8.66126 -6.6805,-12.99549 -2.03709,-4.42671 -4.22877,-8.79128 -6.33521,-13.22376 l -3.01086,-6.73974 c -1.00265,-2.23358 -2.06454,-4.45849 -3.09753,-6.69062 z m -6.55625,1.62534 c -0.69782,1.44041 -1.69759,3.5743 -3.0412,6.23841 -0.66169,1.33495 -1.40429,2.81292 -2.21624,4.41514 -0.81916,1.595 -1.80592,3.28247 -2.84182,5.09996 -2.12377,3.59164 -4.31112,7.82185 -7.20206,12.07373 -2.8028,4.30968 -5.72119,9.08312 -9.28537,13.78144 -1.7467,2.37371 -3.50207,4.8529 -5.37012,7.3263 -1.92874,2.44162 -3.89215,4.92081 -5.9408,7.41877 -1.01999,1.23671 -2.05298,2.49797 -3.08598,3.76501 -1.08789,1.22515 -2.17,2.46763 -3.27668,3.71011 -2.20613,2.46762 -4.40503,5.02049 -6.69495,7.51845 -2.38672,2.41128 -4.78645,4.84135 -7.19628,7.26419 -1.21792,1.21792 -2.38672,2.48496 -3.65376,3.6422 l -1.38262,1.28582 c 0.64002,1.50254 1.00409,3.16544 1.00409,4.90925 0,0.87696 -0.0982,1.74381 -0.26583,2.56586 0.72671,0.34675 1.44042,0.68048 2.15845,1.04456 3.74622,1.89695 7.49678,4.07418 11.34559,6.16472 3.90515,2.05155 7.65426,4.40792 11.48717,6.77008 1.90418,1.18036 3.82713,2.38672 5.75298,3.59887 1.41874,0.90296 2.81581,1.87961 4.20999,2.85626 2.11077,-1.60655 4.73299,-2.56587 7.57047,-2.56587 0.80328,0 1.58344,0.0809 2.34915,0.22249 l 1.36384,-2.35637 c 1.33784,-2.2437 2.55287,-4.56251 4.0034,-6.7383 l 8.74794,-13.00272 2.19601,-3.23333 c 0.73682,-1.0879 1.55744,-2.08911 2.33615,-3.14088 1.57477,-2.07755 3.18133,-4.14208 4.78356,-6.19507 3.22322,-4.09874 6.33088,-8.2784 9.89217,-12.1113 0.72671,-0.84084 1.47508,-1.67591 2.21335,-2.51675 -1.57622,-2.08911 -2.5153,-4.68676 -2.5153,-7.51846 0,-3.87625 1.75247,-7.35086 4.52783,-9.6509 l -1.072,-2.28703 c -1.93885,-4.55096 -3.75634,-9.14957 -5.6114,-13.72509 -1.68745,-4.65497 -3.23189,-9.36051 -4.82544,-14.01548 l -2.00676,-7.10381 c -0.65447,-2.36794 -1.25692,-4.76622 -1.89695,-7.13415 -1.8117,-0.24706 -3.65376,-0.4392 -5.49292,-0.5938 -0.004,-9.7e-4 -0.37274,0.7715 -1.06766,2.21769 z M 195.26,395.53201 c -1.45342,-1.57621 -2.91261,-3.16399 -4.38336,-4.76621 -0.72382,-0.81051 -1.50253,-1.57767 -2.29714,-2.33038 -0.78595,-0.75416 -1.58056,-1.52132 -2.37228,-2.28848 -3.16399,-3.05274 -6.37711,-6.15173 -9.61044,-9.27382 -1.57911,-1.60656 -3.27669,-3.05998 -4.9786,-4.53795 -1.7048,-1.47797 -3.38938,-2.95595 -5.09418,-4.45125 -1.69757,-1.47798 -3.41826,-2.96751 -5.11295,-4.4585 -0.87263,-0.74114 -1.68746,-1.49675 -2.58465,-2.21912 l -2.73346,-2.12089 c -1.43607,-1.11823 -2.88949,-2.21913 -4.32412,-3.33303 -2.00964,1.33495 -4.40793,2.12088 -6.99258,2.12088 -0.53455,0 -1.06911,-0.0433 -1.60366,-0.11124 -1.79293,3.67832 -3.42261,7.35087 -5.15341,11.01763 -1.10668,2.27548 -2.06455,4.64341 -3.04553,6.9998 l -2.94006,7.07347 c -0.99253,2.35494 -1.79871,4.77344 -2.72335,7.15872 l -2.706,7.16594 -2.46762,7.26996 c -0.7975,2.41128 -1.70625,4.80955 -2.37372,7.27718 l -2.17579,7.35086 -1.12835,3.66678 -0.97376,3.71444 c -0.99542,3.79101 -2.03709,7.57336 -2.92993,11.37592 1.17457,0.54468 2.23212,1.26126 3.16543,2.11511 0.57212,-0.3843 1.11968,-0.75994 1.68457,-1.13702 3.02675,-1.89261 6.12428,-3.81557 9.26516,-5.78764 6.37421,-3.78957 13.02727,-7.59792 20.02561,-11.03064 1.7496,-0.87696 3.49341,-1.75536 5.25021,-2.65111 1.76838,-0.82206 3.55698,-1.64557 5.35712,-2.48062 3.58008,-1.61956 7.16883,-3.29403 10.8775,-4.7171 3.68121,-1.43464 7.30752,-2.99785 11.04508,-4.34002 3.74189,-1.32339 7.43755,-2.67855 11.14477,-3.94415 0.55044,-0.16615 1.08789,-0.32219 1.63545,-0.48833 0,-0.0982 -0.0159,-0.19938 -0.0159,-0.29039 0,-2.49797 0.7426,-4.81679 1.99808,-6.77152 -0.23983,-0.25861 -0.49699,-0.51 -0.72815,-0.77728 z M 13.457521,385.73953 c 2.123777,1.6759 4.185429,3.41827 6.333765,5.06961 4.348685,3.18422 8.547116,6.51147 12.905914,9.63356 l 6.577928,4.64919 c 2.203237,1.51409 4.337127,3.14666 6.627048,4.54517 l 6.707955,4.42092 c 2.232132,1.47654 4.445482,2.96751 6.775857,4.29668 2.287032,1.37974 4.587068,2.73346 6.862543,4.14208 l 3.418268,2.09055 3.487616,1.9533 7.002683,3.89503 c 1.171689,0.6357 2.333264,1.32339 3.515066,1.92296 l 3.574302,1.81171 c 4.293784,2.17579 8.519665,4.46427 12.897244,6.46091 2.15123,-2.28704 5.14908,-3.76502 8.51389,-3.9326 0.70792,-3.94994 1.57622,-7.86954 2.38672,-11.81514 0.94631,-5.13173 2.45174,-10.14066 3.73322,-15.20305 0.61546,-2.54131 1.4462,-5.00749 2.1888,-7.51701 l 2.28702,-7.4939 c 1.67591,-4.93381 3.39082,-9.8734 5.25888,-14.75808 l 2.92994,-7.26418 c 0.97376,-2.43006 1.93741,-4.8529 3.07009,-7.23962 1.72791,-3.79101 3.40092,-7.68461 5.21842,-11.39472 -2.16423,-2.26246 -3.50207,-5.3181 -3.50207,-8.69302 0,-1.28006 0.19504,-2.52254 0.55623,-3.69134 -1.32339,-0.95208 -2.65544,-1.89839 -4.00339,-2.78257 -1.88539,-1.19915 -3.73755,-2.39828 -5.5926,-3.58587 -3.69711,-2.39827 -7.29597,-4.84712 -10.99596,-6.94344 -3.69133,-2.14545 -7.20929,-4.36457 -10.85005,-6.35544 -0.72237,-0.39585 -1.41585,-0.77293 -2.133889,-1.16157 -2.287034,2.50952 -5.576719,4.08719 -9.242039,4.08719 -2.305815,0 -4.451262,-0.62414 -6.312095,-1.71347 -5.323888,4.18543 -10.621771,8.32751 -15.954327,11.90759 -5.202529,3.80835 -10.529307,7.06048 -15.536796,10.19557 -5.134626,2.94873 -9.873392,5.89168 -14.505247,8.13536 -2.289922,1.18036 -4.478712,2.30004 -6.569259,3.37637 -2.077545,1.07634 -4.160868,1.90996 -6.040482,2.78836 -3.80835,1.74382 -7.112483,3.23335 -9.932627,4.26634 -5.5796077,2.18878 -8.7999459,3.33881 -8.7999459,3.33881 0.043342,4.57551 0.3091755,9.08889 0.7657152,13.54015 2.1468922,1.64846 4.2576657,3.34893 6.3756627,5.01761 z m 187.546789,6.08381 c 1.67445,-0.82205 3.54251,-1.29737 5.54204,-1.29737 4.69976,0 8.78261,2.5832 10.93672,6.41612 2.50664,-0.61836 5.00172,-1.21215 7.44333,-1.79872 3.48762,-0.71081 6.94635,-1.25404 10.28082,-1.87383 3.32725,-0.59234 6.5967,-1.13701 9.72892,-1.66868 3.15677,-0.50133 6.25285,-0.71081 9.19869,-1.05612 2.94294,-0.32217 5.77463,-0.61834 8.45175,-0.85961 2.69012,-0.26005 5.22709,-0.53745 7.61526,-0.56924 2.05298,-0.0809 3.97593,-0.13724 5.78765,-0.17915 0.0144,-2.5543 0.78449,-4.90924 2.09488,-6.87554 -0.42043,-0.29762 -0.82495,-0.58801 -1.23092,-0.88418 l -3.91671,-2.86782 -3.7679,-3.05419 -7.478,-6.20808 c -1.22803,-1.04455 -2.52252,-2.03276 -3.70867,-3.13943 l -3.5425,-3.33303 -7.07058,-6.68339 c -2.41129,-2.17579 -4.60007,-4.57551 -6.8192,-6.94345 l -6.63138,-7.14138 -1.65713,-1.78715 -1.57332,-1.85505 -3.12788,-3.74045 -6.16184,-7.54302 c -1.06334,-1.24248 -2.01254,-2.56586 -2.95884,-3.87625 l -2.88371,-3.9326 c -1.91573,-2.64099 -3.86469,-5.2372 -5.73853,-7.88397 -1.83772,-2.6829 -3.51796,-5.46548 -5.28199,-8.20471 l -5.23288,-8.22928 c -1.23092,-2.10211 -2.38672,-4.26633 -3.55551,-6.41756 -0.98098,0.25283 -1.99664,0.39586 -3.0542,0.39586 -2.00964,0 -3.90658,-0.48833 -5.59549,-1.32917 -0.67037,0.8524 -1.33784,1.7178 -2.00965,2.56587 -3.28824,3.9326 -6.12572,8.21628 -9.05132,12.4017 -1.46209,2.10211 -2.92995,4.19843 -4.42093,6.27453 -0.73971,1.05178 -1.52131,2.06454 -2.20035,3.14088 l -2.03709,3.25212 -8.1527,12.98393 c -1.72503,2.96751 -3.40237,5.96536 -5.06095,8.98343 1.96919,2.22057 3.16544,5.11296 3.16544,8.30873 0,1.48376 -0.26294,2.90539 -0.7397,4.21577 1.43752,1.13846 2.85914,2.2697 4.29812,3.38793 l 2.71756,2.14545 c 0.89574,0.7426 1.75537,1.55165 2.63666,2.31881 1.75536,1.54588 3.50206,3.10909 5.24587,4.65497 1.7467,1.55167 3.48617,3.09754 5.22999,4.64342 1.7279,1.55165 3.50639,3.04264 5.06382,4.71709 3.20879,3.27813 6.39011,6.54037 9.54255,9.75059 0.77872,0.7975 1.55744,1.60656 2.33904,2.39828 0.78884,0.79172 1.56467,1.595 2.27548,2.44162 1.45052,1.67446 2.90249,3.33303 4.34001,4.99448 0.25139,0.28462 0.47388,0.56202 0.72527,0.84084 z m 78.62738,-11.67932 c 2.27403,-2.30004 5.42791,-3.72166 8.90831,-3.72166 2.24513,0 4.3559,0.58801 6.1705,1.63256 0.36552,-4.11175 0.54467,-8.28417 0.54467,-12.49416 0,-51.92705 -27.39527,-97.45677 -68.52861,-122.92763 -2.77825,2.87504 -5.57961,5.71829 -8.39686,8.53844 -2.73202,2.89961 -5.42502,5.84256 -8.17292,8.68725 l -7.61527,8.55579 c 1.68747,2.13389 2.70168,4.82256 2.70168,7.76551 0,3.43127 -1.3754,6.52881 -3.60753,8.80428 l 3.6841,6.10838 5.24299,7.988 c 1.76981,2.65256 3.42837,5.36001 5.28343,7.95044 1.89696,2.55431 3.71156,5.17508 5.5825,7.75973 l 2.77247,3.88926 c 0.92175,1.29737 1.8276,2.60921 2.84181,3.82135 l 5.96247,7.49389 2.92705,3.76501 1.46642,1.88539 1.55744,1.81172 6.26585,7.23961 c 2.10789,2.38672 4.07419,4.90926 6.31932,7.18472 l 6.55625,6.98535 3.26512,3.51218 c 1.072,1.18758 2.25669,2.26247 3.38504,3.39515 l 6.84954,6.73252 3.39226,3.41827 3.55408,3.23333 c 0.36696,0.32363 0.72526,0.65736 1.08789,0.98532 z M 66.778752,483.11394 c 11.342699,8.11804 23.898984,14.62807 37.358238,19.21658 -0.14159,-5.17508 -0.35252,-10.36172 -0.26872,-15.5368 l 0.18204,-7.7843 0.14157,-3.90081 0.27162,-3.89504 0.55045,-7.79584 c 0.052,-0.77872 0.14881,-1.54444 0.2326,-2.31304 -1.74092,-0.59957 -3.31713,-1.56321 -4.62752,-2.80569 -0.822057,0.53165 -1.632559,1.07488 -2.411277,1.61956 -2.386722,1.66868 -4.673754,3.27812 -6.832205,4.80955 -1.100896,0.75415 -2.164229,1.49675 -3.198666,2.21913 -1.017102,0.75416 -2.006752,1.47797 -2.951616,2.19024 -1.917178,1.42162 -3.715886,2.75079 -5.360007,3.97449 -0.840842,0.59957 -1.648455,1.18758 -2.41128,1.7438 -0.739711,0.58657 -1.453415,1.14424 -2.123776,1.67591 -5.072503,3.9875 -8.18304,6.31788 -8.522556,6.55337 0.309176,-0.33373 2.945837,-3.15388 7.462112,-7.76551 2.359269,-2.52975 5.495813,-5.27332 9.013768,-8.55145 3.444275,-3.36337 7.727945,-6.71373 12.260113,-10.54664 0.748378,-0.62557 1.53432,-1.22515 2.300037,-1.84205 -0.710817,-1.57767 -1.113901,-3.32003 -1.113901,-5.16208 0,-0.50132 0.03756,-1.00121 0.09535,-1.48954 -4.475823,-2.10932 -8.801391,-4.52061 -13.18186,-6.80764 l -3.61331,-1.93596 c -1.183246,-0.67325 -2.327485,-1.39706 -3.499174,-2.09488 l -7.005572,-4.22298 -3.499174,-2.1209 -3.387929,-2.27547 c -2.287032,-1.49531 -4.519164,-3.05419 -6.7643,-4.57551 -2.275474,-1.50831 -4.451261,-3.15243 -6.624159,-4.785 l -6.520137,-4.90924 c -2.1859,-1.60078 -4.222992,-3.43127 -6.312095,-5.16208 l -6.249969,-5.22998 c -2.077544,-1.74381 -4.003391,-3.6971 -5.99714,-5.52037 -1.982191,-1.86661 -3.974495,-3.70867 -5.929236,-5.59551 -3.792454,-3.84446 -7.491003,-7.77706 -11.1606575,-11.77034 4.4108085,42.1808 26.9531755,78.95969 59.6983385,102.39202 z M 28.061011,289.28541 c -13.792987,22.13928 -21.7564258,48.27907 -21.7564258,76.27391 0,0.54322 0,1.08789 0.013003,1.61956 0,0 2.886602,-1.86083 8.0067811,-4.91503 2.58176,-1.47797 5.592611,-3.49917 9.107676,-5.6634 3.526625,-2.15845 7.405767,-4.76622 11.64754,-7.54302 1.063334,-0.69926 2.13678,-1.41007 3.240566,-2.13389 1.087893,-0.75416 2.170008,-1.53432 3.301244,-2.31881 2.24369,-1.54588 4.556728,-3.14667 6.960785,-4.798 2.330375,-1.71781 4.730097,-3.48763 7.165939,-5.29789 2.503744,-1.7308 4.942475,-3.65376 7.43755,-5.57672 2.479184,-1.94174 5.075392,-3.86325 7.518458,-5.95958 2.482073,-2.0342 5.007488,-4.08718 7.545907,-6.16472 -0.534556,-1.39708 -0.837954,-2.89961 -0.837954,-4.47582 0,-0.90875 0.09824,-1.80016 0.293284,-2.65256 -2.357825,-1.18758 -4.641968,-2.34338 -6.946337,-3.28968 -6.290423,-2.7638 -12.007282,-5.46548 -17.227148,-7.43755 -2.593319,-1.04456 -5.036384,-2.0212 -7.280075,-2.92995 -2.232132,-0.95932 -4.353019,-1.68169 -6.24708,-2.36794 -7.144268,-2.54131 -11.381707,-4.15364 -11.883034,-4.35302 0.525887,0.11124 4.961257,1.03299 12.341018,2.7638 3.960048,0.7975 8.665585,2.28703 14.106498,3.86325 2.701674,0.82206 5.650401,1.57622 8.617909,2.69011 2.986289,1.07635 6.119942,2.19458 9.396625,3.36338 2.430063,0.82205 4.860125,1.7987 7.339309,2.84325 2.287033,-3.06719 5.929237,-5.05083 10.046762,-5.05083 2.113663,0 4.126193,0.53167 5.870001,1.46498 l 1.294493,-1.1688 c 1.255486,-1.11823 2.398279,-2.33038 3.610425,-3.48762 2.38671,-2.36072 4.77344,-4.70409 7.13126,-7.01713 2.29715,-2.38672 4.58707,-4.74165 6.8481,-7.08503 1.11245,-1.17458 2.24369,-2.33038 3.34747,-3.48617 1.07345,-1.20059 2.13678,-2.38672 3.18134,-3.55552 2.07465,-2.37372 4.18253,-4.67376 6.23407,-6.91889 1.99086,-2.28703 3.87337,-4.60585 5.75876,-6.8192 0.92174,-1.10667 1.84205,-2.20758 2.74501,-3.27668 0.46377,-0.55046 0.92175,-1.07634 1.37251,-1.61379 0.42909,-0.53888 0.85962,-1.08211 1.28005,-1.61377 1.70335,-2.14546 3.33303,-4.20999 4.90636,-6.20663 3.21166,-3.94416 5.90467,-7.71495 8.39686,-11.01619 1.24538,-1.65712 2.40116,-3.20878 3.48039,-4.64341 1.046,-1.4722 1.99375,-2.82015 2.84181,-4.04384 1.71782,-2.44163 3.10622,-4.34003 4.04386,-5.63885 0.94774,-1.29738 1.45629,-1.98508 1.45629,-1.98508 -4.288,-0.38575 -8.60924,-0.5779 -12.9926,-0.5779 -51.804247,0 -97.218386,27.25224 -122.715259,68.20067 z M 240.43575,478.84183 c -5.39324,0.13147 -10.81248,0.16759 -16.2346,0.16759 -2.71757,0.0188 -5.41203,-0.22249 -8.11369,-0.34674 l -8.13392,-0.44498 c -2.72046,-0.0752 -5.40047,-0.53166 -8.10503,-0.7975 l -8.10069,-0.93331 c -2.706,-0.25427 -5.38601,-0.71081 -8.06312,-1.19913 l -8.05158,-1.3913 -4.01205,-0.72959 -3.98895,-0.88997 c -2.65254,-0.58801 -5.30077,-1.19913 -7.95332,-1.83049 l -3.98894,-0.94631 c -1.31039,-0.33229 -2.60922,-0.7426 -3.9196,-1.10089 l -7.86376,-2.26248 c -5.27332,-1.38406 -10.40505,-3.37492 -15.58303,-5.16207 -3.27668,-1.06912 -6.41321,-2.31304 -9.52376,-3.58441 -2.23213,2.6092 -5.53626,4.28511 -9.22036,4.37035 -0.58512,3.28824 -1.1009,6.56637 -1.64845,9.85461 l -0.61258,3.80257 -0.49121,3.83291 -1.0171,7.67305 c -0.62414,5.11297 -1.05756,10.26349 -1.67013,15.40678 14.62516,4.99593 30.32087,7.70339 46.63639,7.70339 33.86773,0 65.02801,-11.66055 89.65948,-31.19208 z m 0.0116,0 c 3.60175,-2.85626 7.07925,-5.88445 10.38483,-9.06289 19.13853,-18.3685 33.20313,-41.94241 39.95154,-68.44049 -0.71803,0.12424 -1.47798,0.19215 -2.24514,0.19215 -6.21962,0 -11.36581,-4.53218 -12.35257,-10.4614 -1.8146,0.25426 -3.713,0.50132 -5.76164,0.75414 -2.38384,0.25428 -4.8688,0.7426 -7.48812,1.24249 -2.60921,0.51289 -5.37301,1.01999 -8.25093,1.5141 -2.85626,0.56344 -5.85556,0.97087 -8.92853,1.68891 -3.04697,0.7426 -6.21385,1.5083 -9.47753,2.2509 -3.25212,0.76572 -6.60971,1.47654 -10.00775,2.35494 -2.34916,0.6877 -4.75033,1.39852 -7.18039,2.10933 v 0.0982 c 0,2.95451 -1.02721,5.6634 -2.73924,7.80741 4.81678,6.05204 8.72338,12.43926 12.53028,18.13444 0.96654,1.45342 1.90562,2.86783 2.82159,4.2649 0.92464,1.39852 1.65568,2.8577 2.46617,4.23021 1.56467,2.74357 3.03975,5.36579 4.4556,7.82041 1.3754,2.45463 2.72913,4.72866 3.82858,6.90588 1.06045,2.20614 2.03709,4.22878 2.92994,6.05204 1.7756,3.64221 3.09899,6.52882 4.03229,8.48211 0.8105,1.71347 1.28005,2.72045 1.38118,2.95595 -0.14015,-0.21094 -0.7296,-1.15724 -1.7467,-2.7768 -1.1399,-1.84206 -2.85915,-4.50039 -4.96559,-7.95044 -1.05611,-1.7178 -2.21335,-3.61042 -3.48618,-5.6764 -1.32338,-2.0342 -2.87214,-4.16666 -4.43248,-6.49703 -1.58054,-2.30148 -3.24922,-4.77344 -5.02482,-7.36387 -0.90874,-1.28726 -1.77126,-2.641 -2.76235,-3.95137 -0.98676,-1.31039 -2.00675,-2.65112 -3.03686,-4.01207 -2.06598,-2.73924 -4.20998,-5.58249 -6.4479,-8.524 -1.10089,-1.47797 -2.22057,-2.97473 -3.51651,-4.42236 -1.1269,-1.37106 -2.28704,-2.76236 -3.45583,-4.15365 -1.63257,0.77872 -3.45728,1.22371 -5.38313,1.22371 -4.34001,0 -8.16281,-2.18879 -10.41084,-5.53916 -0.54466,0.18493 -1.07344,0.36552 -1.60077,0.55045 -3.55841,1.34795 -7.15293,2.63377 -10.75468,3.96872 -3.61332,1.34216 -7.16884,2.91983 -10.74747,4.36457 -3.61331,1.41007 -7.09081,3.14088 -10.63622,4.68675 -1.75681,0.79751 -3.51218,1.582 -5.27043,2.37372 -1.71636,0.83507 -3.44428,1.68891 -5.14474,2.52253 -3.43127,1.68891 -6.84666,3.32003 -10.11467,5.14907 -3.27379,1.81172 -6.60971,3.40093 -9.76215,5.23143 -3.15388,1.8117 -6.26297,3.58441 -9.2926,5.34122 -0.53745,0.32218 -1.08212,0.65447 -1.61379,0.97666 0.40454,1.25548 0.64292,2.58464 0.64292,3.95715 0,0.30918 -0.0304,0.61835 -0.0462,0.92175 3.10043,1.29738 6.19796,2.56442 9.3085,3.6292 l 7.47078,2.72046 c 2.46907,0.97664 5.02627,1.7857 7.55747,2.59042 l 7.6167,2.4734 c 1.27138,0.40743 2.54131,0.83363 3.82425,1.21215 l 3.86036,1.06189 c 2.58176,0.68047 5.15341,1.4043 7.73228,2.13388 l 3.8488,1.10091 3.9037,0.92175 7.82475,1.8117 c 2.6092,0.59958 5.20541,1.26704 7.84208,1.7308 5.27043,0.97666 10.51341,2.1079 15.81563,2.95596 l 15.95432,2.43006 c 5.35712,0.59957 10.71424,1.22514 16.08291,1.93452 l 0.013,-3.48618 v 3.48473 z"
       id="path3" /><g
       id="g5027"
       style="fill:#00303d;fill-opacity:1"
       transform="translate(0,4.3389831)"><g
         style="opacity:0.70355732999999998;fill:#00303d;fill-opacity:1"
         transform="matrix(4.4445334,0,0,4.1950278,7.0508913,230.8059)"
         id="cloud"><g
           style="fill:#00303d;fill-opacity:1"
           id="g6"><g
             style="fill:#00303d;fill-opacity:1"
             id="g8"><rect
               style="fill:#00303d;fill-opacity:1"
               id="rect10"
               y="56"
               x="37"
               width="21"
               height="2" /><rect
               style="fill:#00303d;fill-opacity:1"
               id="rect12"
               y="56"
               x="6"
               width="21"
               height="2" /><rect
               style="fill:#00303d;fill-opacity:1"
               id="rect14"
               y="45.571533"
               x="31.322758"
               width="1.6772362"
               height="9.4284401" /></g></g><path
           style="fill:#00303d;fill-opacity:1"
           inkscape:connector-curvature="0"
           id="path16"
           d="m 36,60 h -8 c -1.1,0 -2,-0.9 -2,-2 v -2 c 0,-1.1 0.9,-2 2,-2 h 8 c 1.1,0 2,0.9 2,2 v 2 c 0,1.1 -0.9,2 -2,2 z" /></g><g
         style="opacity:0.70355732999999998;fill:#00303d;fill-opacity:1"
         transform="matrix(-8.3617496,0,0,-8.3900557,250.52326,449.08086)"
         id="g3"><path
           style="fill:#00303d;fill-opacity:1"
           sodipodi:nodetypes="ccssscsssscsssccccccccccccccccccccc"
           id="path5"
           d="M 23,3 1,3 C 1,3 0,3.4 0,4 l 0,13 c 0,0.6 0.4,1 1,1 l 4,0 0,5 c 0,0.6 0.4,1 1,1 l 12,0 c 0.6,0 1,-0.4 1,-1 l 0,-5 4,0 c 0.6,0 1,-0.4 1,-1 L 24,4 C 24,3.4 23,3 23,3 z m -5,0 c 8.013304,-7.8598012 4.006652,-3.92990058 0,0 z m 0,20 -12,0 0,-11 12,0 z m 4,-7 -3,0 0,-4 1,0 0,-2 -16,0 0,2 1,0 0,4 -3,0 0,-11 20,0 z"
           inkscape:connector-curvature="0" /><circle
           style="fill:#00303d;fill-opacity:1"
           d="M 5,7 C 5,7.5522847 4.5522847,8 4,8 3.4477153,8 3,7.5522847 3,7 3,6.4477153 3.4477153,6 4,6 4.5522847,6 5,6.4477153 5,7 z"
           id="circle7"
           r="1"
           cy="7"
           cx="4"
           sodipodi:cx="4"
           sodipodi:cy="7"
           sodipodi:rx="1"
           sodipodi:ry="1" /><circle
           style="fill:#00303d;fill-opacity:1"
           d="M 8,7 C 8,7.5522847 7.5522847,8 7,8 6.4477153,8 6,7.5522847 6,7 6,6.4477153 6.4477153,6 7,6 7.5522847,6 8,6.4477153 8,7 z"
           id="circle9"
           r="1"
           cy="7"
           cx="7"
           sodipodi:cx="7"
           sodipodi:cy="7"
           sodipodi:rx="1"
           sodipodi:ry="1" /><rect
           style="fill:#00303d;fill-opacity:1"
           id="rect11"
           y="14"
           x="8"
           width="8"
           height="1" /><rect
           style="fill:#00303d;fill-opacity:1"
           id="rect13"
           y="17"
           x="8"
           width="8"
           height="1" /><rect
           style="fill:#00303d;fill-opacity:1"
           id="rect15"
           y="20"
           x="8"
           width="8"
           height="1" /></g></g></g></svg>