<?xml version="1.0" encoding="UTF-8" standalone="no"?>
<svg
   xmlns:dc="http://purl.org/dc/elements/1.1/"
   xmlns:cc="http://creativecommons.org/ns#"
   xmlns:rdf="http://www.w3.org/1999/02/22-rdf-syntax-ns#"
   xmlns:svg="http://www.w3.org/2000/svg"
   xmlns="http://www.w3.org/2000/svg"
   xmlns:xlink="http://www.w3.org/1999/xlink"
   xmlns:sodipodi="http://sodipodi.sourceforge.net/DTD/sodipodi-0.dtd"
   xmlns:inkscape="http://www.inkscape.org/namespaces/inkscape"
   height="300"
   id="Layer_1"
   version="1.1"
   viewBox="0 0 300 300"
   width="300"
   xml:space="preserve"
   inkscape:version="0.48.4 r9939"
   sodipodi:docname="arqueo.svg"
   inkscape:export-filename="/var/www/risto/ristorantino/Vendor/ristorantino/plugins/Risto/webroot/css/ristorantino/home/arqueo.png"
   inkscape:export-xdpi="37.970001"
   inkscape:export-ydpi="37.970001"><metadata
     id="metadata12"><rdf:RDF><cc:Work
         rdf:about=""><dc:format>image/svg+xml</dc:format><dc:type
           rdf:resource="http://purl.org/dc/dcmitype/StillImage" /><dc:title></dc:title></cc:Work></rdf:RDF></metadata><sodipodi:namedview
     pagecolor="#ffffff"
     bordercolor="#666666"
     borderopacity="1"
     objecttolerance="10"
     gridtolerance="10"
     guidetolerance="10"
     inkscape:pageopacity="0"
     inkscape:pageshadow="2"
     inkscape:window-width="1050"
     inkscape:window-height="1628"
     id="namedview10"
     showgrid="false"
     inkscape:zoom="0.921875"
     inkscape:cx="134.97567"
     inkscape:cy="-246.28849"
     inkscape:window-x="0"
     inkscape:window-y="0"
     inkscape:window-maximized="1"
     inkscape:current-layer="g6010" /><defs
     id="defs12"><linearGradient
       id="linearGradient9456"><stop
         style="stop-color:#f60ffe;stop-opacity:1;"
         offset="0"
         id="stop9458" /><stop
         style="stop-color:#57006c;stop-opacity:1;"
         offset="1"
         id="stop9460" /></linearGradient><linearGradient
       id="linearGradient9423"><stop
         style="stop-color:#fec00f;stop-opacity:1;"
         offset="0"
         id="stop9425" /><stop
         style="stop-color:#fec00f;stop-opacity:1;"
         offset="1"
         id="stop9427" /></linearGradient><linearGradient
       id="linearGradient9415"><stop
         style="stop-color:#fffb90;stop-opacity:1;"
         offset="0"
         id="stop9417" /><stop
         style="stop-color:#fff83e;stop-opacity:1;"
         offset="1"
         id="stop9419" /></linearGradient><linearGradient
       id="linearGradient4431"><stop
         style="stop-color:#7190da;stop-opacity:1;"
         offset="0"
         id="stop4433" /><stop
         style="stop-color:#1b3269;stop-opacity:1;"
         offset="1"
         id="stop4435" /></linearGradient><linearGradient
       id="linearGradient4308"><stop
         style="stop-color:#dddad5;stop-opacity:1;"
         offset="0"
         id="stop4310" /><stop
         style="stop-color:#6d665a;stop-opacity:1;"
         offset="1"
         id="stop4312" /></linearGradient><linearGradient
       id="linearGradient4270"><stop
         style="stop-color:#8d95c4;stop-opacity:1;"
         offset="0"
         id="stop4272" /><stop
         style="stop-color:#140e36;stop-opacity:1;"
         offset="1"
         id="stop4274" /></linearGradient><linearGradient
       id="linearGradient4262"><stop
         style="stop-color:#4c1413;stop-opacity:1;"
         offset="0"
         id="stop4264" /><stop
         style="stop-color:#db706e;stop-opacity:1;"
         offset="1"
         id="stop4266" /></linearGradient><linearGradient
       id="linearGradient4252"><stop
         style="stop-color:#244289;stop-opacity:1;"
         offset="0"
         id="stop4254" /><stop
         id="stop4260"
         offset="0.5"
         style="stop-color:#244289;stop-opacity:0.49803922;" /><stop
         style="stop-color:#244289;stop-opacity:0;"
         offset="1"
         id="stop4256" /></linearGradient><linearGradient
       id="linearGradient3759"><stop
         id="stop4226"
         offset="0"
         style="stop-color:#331718;stop-opacity:1;" /><stop
         style="stop-color:#250a0a;stop-opacity:1"
         offset="1"
         id="stop3763" /></linearGradient><filter
       id="filter4346"
       inkscape:label="Quadritone fantasy"
       inkscape:menu="Color"
       inkscape:menu-tooltip="Replace hue by two colors"
       height="1"
       width="1"
       y="0"
       x="0"
       color-interpolation-filters="sRGB"><feComposite
         id="feComposite4386"
         operator="over" /><feBlend
         blend="normal"
         id="feBlend4384"
         mode="darken" /><feColorMatrix
         id="feColorMatrix4348"
         type="saturate"
         values="1"
         result="result2" /><feColorMatrix
         id="feColorMatrix4350"
         result="result1"
         values="150.66666666666666"
         type="hueRotate"
         in="result2" /><feColorMatrix
         id="feColorMatrix4352"
         values="1 -1 1 0 0 0 1 0 0 0 1 -1 1 0 0 0 0 0 1 0 "
         type="matrix" /><feColorMatrix
         id="feColorMatrix4354"
         values="300"
         type="hueRotate"
         result="result3" /></filter><filter
       id="filter4382"
       inkscape:label="filtro2" /><linearGradient
       inkscape:collect="always"
       xlink:href="#linearGradient4560-7"
       id="linearGradient4566-0"
       x1="123.38982"
       y1="321.66965"
       x2="156.6348"
       y2="321.75189"
       gradientUnits="userSpaceOnUse" /><linearGradient
       inkscape:collect="always"
       id="linearGradient4560-7"><stop
         style="stop-color:#000009;stop-opacity:1;"
         offset="0"
         id="stop4562-2" /><stop
         style="stop-color:#000009;stop-opacity:0;"
         offset="1"
         id="stop4564-6" /></linearGradient><linearGradient
       inkscape:collect="always"
       xlink:href="#linearGradient4560-2"
       id="linearGradient4566-05"
       x1="123.38982"
       y1="321.66965"
       x2="156.6348"
       y2="321.75189"
       gradientUnits="userSpaceOnUse" /><linearGradient
       inkscape:collect="always"
       id="linearGradient4560-2"><stop
         style="stop-color:#000009;stop-opacity:1;"
         offset="0"
         id="stop4562-7" /><stop
         style="stop-color:#000009;stop-opacity:0;"
         offset="1"
         id="stop4564-67" /></linearGradient><linearGradient
       inkscape:collect="always"
       xlink:href="#linearGradient4560-28"
       id="linearGradient4566-5"
       x1="123.38982"
       y1="321.66965"
       x2="156.6348"
       y2="321.75189"
       gradientUnits="userSpaceOnUse" /><linearGradient
       inkscape:collect="always"
       id="linearGradient4560-28"><stop
         style="stop-color:#000009;stop-opacity:1;"
         offset="0"
         id="stop4562-24" /><stop
         style="stop-color:#000009;stop-opacity:0;"
         offset="1"
         id="stop4564-0" /></linearGradient><radialGradient
       inkscape:collect="always"
       xlink:href="#linearGradient9456"
       id="radialGradient9462"
       cx="153.79662"
       cy="329.36755"
       fx="153.79662"
       fy="329.36755"
       r="150"
       gradientTransform="matrix(1.0831638,0.00723164,-0.0066504,0.99610502,-10.599892,0.29930749)"
       gradientUnits="userSpaceOnUse" /></defs><g
     id="g6010"
     transform="translate(0,-212)"><rect
       height="298.83817"
       id="rect2987"
       rx="37.5"
       ry="37.354771"
       style="fill:url(#radialGradient9462);fill-opacity:1;fill-rule:nonzero;stroke:none"
       width="300"
       x="0"
       y="213.16183" /><path
       style="opacity:0.72727273;fill:#ffffff"
       inkscape:connector-curvature="0"
       d="M 250.10861,407.28778 H 115.78779 c -5.29177,0 -9.59274,-4.30097 -9.59274,-9.59273 V 282.55969 c 0,-5.29176 4.30097,-9.59273 9.59274,-9.59273 h 134.32082 c 5.29177,0 9.59274,4.30097 9.59274,9.59273 v 115.13536 c 0,5.29176 -4.30097,9.59273 -9.59274,9.59273 z"
       id="path9470" /><path
       style="opacity:0.72727273;fill:#ffffff"
       inkscape:connector-curvature="0"
       d="m 192.52968,440.86236 c 0.0675,-5.17918 4.32348,-9.32252 9.50266,-9.25497 5.17918,0.0676 9.32252,4.32349 9.25496,9.50267 -0.0675,5.17918 -4.32348,9.32252 -9.50266,9.25496 -5.0891,-0.0676 -9.18741,-4.16586 -9.25496,-9.25496 v -0.2477 z"
       id="path9472" /><path
       style="opacity:0.72727273;fill:#ffffff"
       inkscape:connector-curvature="0"
       d="m 72.597957,440.86236 c 0.06755,-5.17918 4.323486,-9.32252 9.502663,-9.25497 5.179177,0.0676 9.322518,4.32349 9.254964,9.50267 -0.06755,5.17918 -4.323487,9.32252 -9.502664,9.25496 -5.089104,-0.0676 -9.187409,-4.16586 -9.254963,-9.25496 v -0.2477 z"
       id="path9474" /><path
       style="opacity:0.72727273;fill:#ffffff"
       inkscape:connector-curvature="0"
       d="m 106.19505,416.88052 c -11.37167,-2.11671 -9.592735,-9.59274 -9.592735,-9.59274 V 325.72701 H 58.208852 c -13.105569,0 -14.389104,14.3891 -14.389104,14.3891 v 76.76441 H 39.02338 v 23.98184 h 23.98184 c 0,-10.60605 8.601938,-19.18547 19.185473,-19.18547 10.606053,0 19.185477,8.57942 19.185477,19.18547 h 81.56077 c 0,-10.60605 8.60194,-19.18547 19.18547,-19.18547 10.60606,0 19.18548,8.57942 19.18548,19.18547 h 23.98184 v -23.98184 c 0.0225,0 -127.72301,2.13922 -139.09468,0 z M 82.190693,378.50957 H 58.208852 v -28.7782 c 0,-5.29177 4.300969,-9.59274 9.592736,-9.59274 h 14.389105 v 38.37094 z"
       id="path9476" /><g
       id="g9492"
       transform="matrix(0.16652831,0,0,0.16652831,126.0526,293.49946)"
       style="fill:#870598;fill-opacity:1"><title
         id="title9494">Layer 1</title><g
         id="layer1"
         style="fill:#870598;fill-opacity:1"><g
           id="g3257"
           transform="matrix(0.547803,0,0,0.547803,165.303,314.126)"
           style="fill:#870598;fill-opacity:1"><path
             id="path3176"
             d="M -3.104416,319.93658 C 187.34259,237.91257 516.38355,260.53958 689.8606,373.67657 753.02856,295.42358 731.34363,106.86157 658.74756,85.177581 708.71655,-106.21242 608.77857,-515.3924 851.08057,-528.59143 c 97.10901,103.70901 157.44703,-126.336 2.828,-70.711 -319.58203,30.77002 -208.15503,428.58331 -282.84204,664.681 C 303.30856,6.924571 -145.46841,135.14657 -54.016113,206.79959 211.85559,135.14658 539.95361,49.350582 658.74756,294.48059 526.75452,162.48758 38.379181,186.05759 -3.104415,319.93658 z"
             inkscape:connector-curvature="0"
             style="fill:#870598;fill-opacity:1" /><g
             id="g3249"
             style="fill:#870598;fill-opacity:1"><path
               id="path3202"
               d="M 16.69458,76.692566 C -195.43741,-101.49844 -673.89038,-620.81042 590.8656,-367.37042 -339.68741,-418.28241 -218.06442,-339.08661 16.69458,76.692566 z"
               inkscape:connector-curvature="0"
               style="fill:#870598;fill-opacity:1" /><path
               id="path3204"
               d="m -141.69733,-206.15062 c 207.417911,-68.825 457.2619,-95.22371 684.47895,-50.91161 -214.01703,-15.08499 -461.976032,37.71232 -661.85154,104.6518 -7.54251,-17.91339 -15.08499,-35.82678 -22.62741,-53.74019 z"
               inkscape:connector-curvature="0"
               style="fill:#870598;fill-opacity:1" /><path
               id="path3206"
               d="m -73.815125,-76.043427 c 10.370911,19.799007 20.741806,39.598003 31.112717,59.396999 C 97.776588,-107.15543 291.99457,-146.75363 491.87058,-135.43942 c -148.021,-76.368 -335.63999,-48.0837 -565.685704,59.395993 z"
               inkscape:connector-curvature="0"
               style="fill:#870598;fill-opacity:1" /><path
               id="path3208"
               d="m -130.38364,-350.40042 c 27.34144,-12.25601 54.682926,-24.513 82.024372,-36.76901 C 70.434586,-243.86294 132.65958,-94.899429 172.2576,59.721585 96.83358,-85.47142 12.923279,-216.52153 -130.38364,-350.40042 z"
               inkscape:connector-curvature="0"
               style="fill:#870598;fill-opacity:1" /><path
               id="path3210"
               d="m 39.321983,-401.31244 c 23.570602,-0.94198 47.140594,-1.88498 70.710597,-2.828 107.47999,130.10763 152.735,263.04402 152.735,398.808008 C 222.22656,-137.32542 159.05859,-269.31882 39.321983,-401.31244 z"
               inkscape:connector-curvature="0"
               style="fill:#870598;fill-opacity:1" /><path
               id="path3212"
               d="m 237.31158,-398.48343 c 22.62803,0.94302 45.25501,1.88501 67.883,2.828 43.36899,112.19452 75.42401,218.73191 70.70999,336.583008 -15.08499,-118.793908 -69.768,-223.445708 -138.59299,-339.411008 z"
               inkscape:connector-curvature="0"
               style="fill:#870598;fill-opacity:1" /></g><path
             id="path3234"
             d="m 59.630585,271.54156 c -17.018303,0.24402 -32.895401,5.08704 -45.625,14.969 -37.031494,28.74902 -33.575104,89.26105 7.718811,135.09399 41.294189,45.83301 104.874184,59.71704 141.906194,30.96906 37.03201,-28.74902 33.57501,-89.29205 -7.719,-135.125 -27.099,-30.07801 -63.791007,-46.37201 -96.281005,-45.90704 z m 29.124992,57.40705 c 14.227003,-0.22003 30.290013,7.49798 42.156013,21.68695 18.08301,21.62103 19.62198,50.15704 3.40601,63.71899 -16.21502,13.56201 -44.07301,7.02704 -62.156017,-14.59399 -18.0821,-21.62097 -19.590599,-50.18799 -3.375,-63.75 5.574005,-4.66199 12.516998,-6.94696 19.968994,-7.06195 z"
             inkscape:connector-curvature="0"
             style="fill:#870598;fill-opacity:1" /><path
             id="path3243"
             d="m 564.50659,271.54156 c -17.01904,0.24402 -32.89599,5.08704 -45.625,14.969 -37.03201,28.74902 -33.57602,89.26105 7.71802,135.09399 41.29394,45.83301 104.875,59.71704 141.90698,30.96906 37.03101,-28.74902 33.57495,-89.29205 -7.71899,-135.125 -27.099,-30.07801 -63.79199,-46.37201 -96.28101,-45.90704 z m 29.125,57.40705 c 14.22693,-0.22003 30.28894,7.49798 42.15601,21.68695 18.08203,21.62103 19.62195,50.15704 3.406,63.71899 -16.21606,13.56201 -44.07397,7.02704 -62.156,-14.59399 -18.08203,-21.62097 -19.59107,-50.18799 -3.375,-63.75 5.57397,-4.66199 12.51599,-6.94696 19.96899,-7.06195 z"
             inkscape:connector-curvature="0"
             style="fill:#870598;fill-opacity:1" /></g></g></g></g></svg>