<?xml version="1.0" encoding="UTF-8" standalone="no"?>
<svg
   xmlns:dc="http://purl.org/dc/elements/1.1/"
   xmlns:cc="http://creativecommons.org/ns#"
   xmlns:rdf="http://www.w3.org/1999/02/22-rdf-syntax-ns#"
   xmlns:svg="http://www.w3.org/2000/svg"
   xmlns="http://www.w3.org/2000/svg"
   xmlns:xlink="http://www.w3.org/1999/xlink"
   xmlns:sodipodi="http://sodipodi.sourceforge.net/DTD/sodipodi-0.dtd"
   xmlns:inkscape="http://www.inkscape.org/namespaces/inkscape"
   height="300"
   id="Layer_1"
   version="1.1"
   viewBox="0 0 300 300"
   width="300"
   xml:space="preserve"
   inkscape:version="0.48.4 r9939"
   sodipodi:docname="reservations.svg"
   inkscape:export-filename="/var/www/risto/ristorantino/Vendor/ristorantino/plugins/Risto/webroot/css/ristorantino/home/adicion.png"
   inkscape:export-xdpi="37.970001"
   inkscape:export-ydpi="37.970001"><metadata
     id="metadata12"><rdf:RDF><cc:Work
         rdf:about=""><dc:format>image/svg+xml</dc:format><dc:type
           rdf:resource="http://purl.org/dc/dcmitype/StillImage" /><dc:title></dc:title></cc:Work></rdf:RDF></metadata><sodipodi:namedview
     pagecolor="#ffffff"
     bordercolor="#666666"
     borderopacity="1"
     objecttolerance="10"
     gridtolerance="10"
     guidetolerance="10"
     inkscape:pageopacity="0"
     inkscape:pageshadow="2"
     inkscape:window-width="1050"
     inkscape:window-height="1628"
     id="namedview10"
     showgrid="false"
     inkscape:zoom="0.4609375"
     inkscape:cx="-33.097245"
     inkscape:cy="120.00408"
     inkscape:window-x="0"
     inkscape:window-y="0"
     inkscape:window-maximized="1"
     inkscape:current-layer="g6010" /><defs
     id="defs12"><linearGradient
       id="linearGradient4270"><stop
         style="stop-color:#dd2823;stop-opacity:1;"
         offset="0"
         id="stop4272" /><stop
         style="stop-color:#360e0e;stop-opacity:1;"
         offset="1"
         id="stop4274" /></linearGradient><linearGradient
       id="linearGradient4262"><stop
         style="stop-color:#4c1413;stop-opacity:1;"
         offset="0"
         id="stop4264" /><stop
         style="stop-color:#db706e;stop-opacity:1;"
         offset="1"
         id="stop4266" /></linearGradient><linearGradient
       id="linearGradient4252"><stop
         style="stop-color:#244289;stop-opacity:1;"
         offset="0"
         id="stop4254" /><stop
         id="stop4260"
         offset="0.5"
         style="stop-color:#244289;stop-opacity:0.49803922;" /><stop
         style="stop-color:#244289;stop-opacity:0;"
         offset="1"
         id="stop4256" /></linearGradient><linearGradient
       id="linearGradient3759"><stop
         id="stop4226"
         offset="0"
         style="stop-color:#331718;stop-opacity:1;" /><stop
         style="stop-color:#250a0a;stop-opacity:1"
         offset="1"
         id="stop3763" /></linearGradient><radialGradient
       inkscape:collect="always"
       xlink:href="#linearGradient4270"
       id="radialGradient4276"
       cx="149.28143"
       cy="342.72534"
       fx="149.28143"
       fy="342.72534"
       r="150"
       gradientUnits="userSpaceOnUse"
       gradientTransform="matrix(1.225318,0.00338589,-0.00341243,1.2349192,-31.747713,-101.62911)" /></defs><g
     id="g6010"
     transform="translate(0,-212)"><rect
       height="300"
       id="rect2987"
       rx="37.5"
       ry="37.5"
       style="fill:url(#radialGradient4276);fill-opacity:1;fill-rule:nonzero;stroke:none;stroke-opacity:1"
       width="300"
       x="0"
       y="212" /><g
       id="g3085"
       transform="matrix(0.45142564,0,0,0.45544481,40.765541,243.2716)"
       style="opacity:0.75494071;fill:#ffffff"><g
         id="g3018"
         style="fill:#ffffff"><g
           id="_x31_5_38_"
           style="fill:#ffffff"><g
             id="g3021"
             style="fill:#ffffff"><path
               id="path3023"
               d="m 118.505,115.332 h 6.938 c 10.544,0 19.091,-8.55 19.091,-19.091 V 43.558 23.852 c 0,-10.541 -8.547,-19.09 -19.091,-19.09 h -6.938 c -10.543,0 -19.09,8.549 -19.09,19.09 v 19.707 52.682 c 0,10.541 8.547,19.091 19.09,19.091 z"
               inkscape:connector-curvature="0"
               style="fill:#ffffff" /><path
               id="path3025"
               d="m 363.373,114.859 h 6.938 c 10.543,0 19.09,-8.549 19.09,-19.091 v -57.21 -15.18 c 0,-10.54 -8.547,-19.089 -19.09,-19.089 h -6.938 c -10.545,0 -19.092,8.549 -19.092,19.089 v 15.18 57.209 c 0.002,10.543 8.549,19.092 19.092,19.092 z"
               inkscape:connector-curvature="0"
               style="fill:#ffffff" /><path
               id="path3027"
               d="M 453.916,43.558 H 404.92 v 57.209 c 0,19.084 -15.525,29.61 -34.607,29.61 h -6.938 c -19.084,0 -34.609,-15.526 -34.609,-34.61 V 43.558 H 160.053 V 96.24 c 0,19.084 -15.525,34.61 -34.609,34.61 h -6.938 c -19.083,0 -34.608,-15.526 -34.608,-34.61 V 43.558 H 31.036 C 13.923,43.558 0,57.481 0,74.595 v 375.03 c 0,17.114 13.923,31.037 31.036,31.037 h 422.88 c 17.113,0 31.035,-13.923 31.035,-31.037 V 74.595 C 484.953,57.482 471.029,43.558 453.916,43.558 z m 0,406.067 H 31.037 L 31.036,166.412 h 422.886 l 0.016,283.212 c -0.002,0 -0.008,10e-4 -0.022,10e-4 z"
               inkscape:connector-curvature="0"
               style="fill:#ffffff" /><path
               id="path3029"
               d="m 258.498,261.41 h 55.727 c 2.209,0 4,-1.791 4,-4 v -48.255 c 0,-2.209 -1.791,-4 -4,-4 h -55.727 c -2.209,0 -4,1.791 -4,4 v 48.255 c 0,2.209 1.791,4 4,4 z"
               inkscape:connector-curvature="0"
               style="fill:#ffffff" /><path
               id="path3031"
               d="m 349.443,261.41 h 55.727 c 2.209,0 4,-1.791 4,-4 v -48.255 c 0,-2.209 -1.791,-4 -4,-4 h -55.727 c -2.209,0 -4,1.791 -4,4 v 48.255 c 0,2.209 1.791,4 4,4 z"
               inkscape:connector-curvature="0"
               style="fill:#ffffff" /><path
               id="path3033"
               d="m 76.611,340.41 h 55.726 c 2.209,0 4,-1.791 4,-4 v -48.256 c 0,-2.209 -1.791,-4 -4,-4 H 76.611 c -2.209,0 -4,1.791 -4,4 v 48.256 c 0,2.209 1.791,4 4,4 z"
               inkscape:connector-curvature="0"
               style="fill:#ffffff" /><path
               id="path3035"
               d="m 167.555,340.41 h 55.726 c 2.209,0 4,-1.791 4,-4 v -48.256 c 0,-2.209 -1.791,-4 -4,-4 h -55.726 c -2.209,0 -4,1.791 -4,4 v 48.256 c 0,2.209 1.791,4 4,4 z"
               inkscape:connector-curvature="0"
               style="fill:#ffffff" /><path
               id="path3037"
               d="m 258.499,340.41 h 55.726 c 2.209,0 4,-1.791 4,-4 v -48.256 c 0,-2.209 -1.791,-4 -4,-4 h -55.726 c -2.209,0 -4,1.791 -4,4 v 48.256 c 0,2.209 1.791,4 4,4 z"
               inkscape:connector-curvature="0"
               style="fill:#ffffff" /><path
               id="path3039"
               d="m 349.443,340.41 h 55.727 c 2.209,0 4,-1.791 4,-4 v -48.256 c 0,-2.209 -1.791,-4 -4,-4 h -55.727 c -2.209,0 -4,1.791 -4,4 v 48.256 c 0,2.209 1.791,4 4,4 z"
               inkscape:connector-curvature="0"
               style="fill:#ffffff" /><path
               id="path3041"
               d="M 132.337,363.154 H 76.612 c -2.209,0 -4,1.791 -4,4 v 48.256 c 0,2.209 1.791,4 4,4 h 55.726 c 2.209,0 4,-1.791 4,-4 v -48.256 c -0.001,-2.209 -1.792,-4 -4.001,-4 z"
               inkscape:connector-curvature="0"
               style="fill:#ffffff" /><path
               id="path3043"
               d="m 223.282,363.154 h -55.726 c -2.209,0 -4,1.791 -4,4 v 48.256 c 0,2.209 1.791,4 4,4 h 55.726 c 2.209,0 4,-1.791 4,-4 v -48.256 c 0,-2.209 -1.791,-4 -4,-4 z"
               inkscape:connector-curvature="0"
               style="fill:#ffffff" /><path
               id="path3045"
               d="M 314.227,363.154 H 258.5 c -2.209,0 -4,1.791 -4,4 v 48.256 c 0,2.209 1.791,4 4,4 h 55.727 c 2.209,0 4,-1.791 4,-4 v -48.256 c 0,-2.209 -1.791,-4 -4,-4 z"
               inkscape:connector-curvature="0"
               style="fill:#ffffff" /><path
               id="path3047"
               d="m 405.17,363.154 h -55.727 c -2.209,0 -4,1.791 -4,4 v 48.256 c 0,2.209 1.791,4 4,4 h 55.727 c 2.209,0 4,-1.791 4,-4 v -48.256 c 0,-2.209 -1.791,-4 -4,-4 z"
               inkscape:connector-curvature="0"
               style="fill:#ffffff" /></g></g></g><g
         id="g3049"
         style="fill:#ffffff" /><g
         id="g3051"
         style="fill:#ffffff" /><g
         id="g3053"
         style="fill:#ffffff" /><g
         id="g3055"
         style="fill:#ffffff" /><g
         id="g3057"
         style="fill:#ffffff" /><g
         id="g3059"
         style="fill:#ffffff" /><g
         id="g3061"
         style="fill:#ffffff" /><g
         id="g3063"
         style="fill:#ffffff" /><g
         id="g3065"
         style="fill:#ffffff" /><g
         id="g3067"
         style="fill:#ffffff" /><g
         id="g3069"
         style="fill:#ffffff" /><g
         id="g3071"
         style="fill:#ffffff" /><g
         id="g3073"
         style="fill:#ffffff" /><g
         id="g3075"
         style="fill:#ffffff" /><g
         id="g3077"
         style="fill:#ffffff" /></g></g></svg>