<?xml version="1.0" encoding="UTF-8" standalone="no"?>
<svg
   xmlns:dc="http://purl.org/dc/elements/1.1/"
   xmlns:cc="http://creativecommons.org/ns#"
   xmlns:rdf="http://www.w3.org/1999/02/22-rdf-syntax-ns#"
   xmlns:svg="http://www.w3.org/2000/svg"
   xmlns="http://www.w3.org/2000/svg"
   xmlns:xlink="http://www.w3.org/1999/xlink"
   xmlns:sodipodi="http://sodipodi.sourceforge.net/DTD/sodipodi-0.dtd"
   xmlns:inkscape="http://www.inkscape.org/namespaces/inkscape"
   height="300"
   id="Layer_1"
   version="1.1"
   viewBox="0 0 300 300"
   width="300"
   xml:space="preserve"
   inkscape:version="0.48.4 r9939"
   sodipodi:docname="stats.svg"
   inkscape:export-filename="/var/www/risto/ristorantino/Vendor/ristorantino/plugins/Risto/webroot/css/ristorantino/home/reservations.png"
   inkscape:export-xdpi="37.970001"
   inkscape:export-ydpi="37.970001"><metadata
     id="metadata12"><rdf:RDF><cc:Work
         rdf:about=""><dc:format>image/svg+xml</dc:format><dc:type
           rdf:resource="http://purl.org/dc/dcmitype/StillImage" /><dc:title></dc:title></cc:Work></rdf:RDF></metadata><sodipodi:namedview
     pagecolor="#ffffff"
     bordercolor="#666666"
     borderopacity="1"
     objecttolerance="10"
     gridtolerance="10"
     guidetolerance="10"
     inkscape:pageopacity="0"
     inkscape:pageshadow="2"
     inkscape:window-width="1050"
     inkscape:window-height="1628"
     id="namedview10"
     showgrid="false"
     inkscape:zoom="0.32593203"
     inkscape:cx="-83.183571"
     inkscape:cy="-313.38726"
     inkscape:window-x="0"
     inkscape:window-y="0"
     inkscape:window-maximized="1"
     inkscape:current-layer="g6010" /><defs
     id="defs12"><linearGradient
       id="linearGradient3917"><stop
         style="stop-color:#ff5700;stop-opacity:1;"
         offset="0"
         id="stop3919" /><stop
         style="stop-color:#842d00;stop-opacity:0.96688741;"
         offset="1"
         id="stop3921" /></linearGradient><linearGradient
       id="linearGradient4270"><stop
         style="stop-color:#dd2823;stop-opacity:1;"
         offset="0"
         id="stop4272" /><stop
         style="stop-color:#360e0e;stop-opacity:1;"
         offset="1"
         id="stop4274" /></linearGradient><linearGradient
       id="linearGradient4262"><stop
         style="stop-color:#4c1413;stop-opacity:1;"
         offset="0"
         id="stop4264" /><stop
         style="stop-color:#db706e;stop-opacity:1;"
         offset="1"
         id="stop4266" /></linearGradient><linearGradient
       id="linearGradient4252"><stop
         style="stop-color:#244289;stop-opacity:1;"
         offset="0"
         id="stop4254" /><stop
         id="stop4260"
         offset="0.5"
         style="stop-color:#244289;stop-opacity:0.49803922;" /><stop
         style="stop-color:#244289;stop-opacity:0;"
         offset="1"
         id="stop4256" /></linearGradient><linearGradient
       id="linearGradient3759"><stop
         id="stop4226"
         offset="0"
         style="stop-color:#331718;stop-opacity:1;" /><stop
         style="stop-color:#250a0a;stop-opacity:1"
         offset="1"
         id="stop3763" /></linearGradient><radialGradient
       inkscape:collect="always"
       xlink:href="#linearGradient3917"
       id="radialGradient3923"
       cx="152.16949"
       cy="327.28815"
       fx="152.16949"
       fy="327.28815"
       r="150"
       gradientUnits="userSpaceOnUse"
       gradientTransform="matrix(1.1880327,0.01367226,-0.01217326,1.0577784,-24.628681,-20.990679)" /></defs><g
     id="g6010"
     transform="translate(0,-212)"><rect
       height="300"
       id="rect2987"
       rx="37.5"
       ry="37.5"
       style="fill:url(#radialGradient3923);fill-opacity:1;fill-rule:nonzero;stroke:none;stroke-opacity:1"
       width="300"
       x="0"
       y="212" /><g
       id="g4026"
       transform="matrix(0.27483231,0,0,0.27483231,86.019722,300.79652)"
       style="fill:#ffcb7b;fill-opacity:1"><g
         id="g3986"
         style="fill:#ffcb7b;fill-opacity:1"><path
           id="path3988"
           d="M 229.488,249.417 350.436,458.913 C 317.92,475.117 281.4,484.442 242.608,484.442 108.63,484.442 0.002,375.816 0.002,241.838 0.001,112.985 100.543,7.88 227.444,0 v 241.838 c -0.003,2.605 0.679,5.209 2.044,7.579 z M 484.441,226.675 H 257.771 V 0 C 379.604,7.551 476.89,104.839 484.441,226.675 z M 288.097,196.349 H 449.671 C 432.054,115.825 368.623,52.39 288.097,34.767 V 196.349 z M 376.763,443.9 C 438.158,403.063 479.616,335.007 484.442,256.998 H 268.878 L 376.763,443.9 z"
           inkscape:connector-curvature="0"
           style="fill:#ffcb7b;fill-opacity:1" /></g><g
         id="g3990"
         style="fill:#ffcb7b;fill-opacity:1" /><g
         id="g3992"
         style="fill:#ffcb7b;fill-opacity:1" /><g
         id="g3994"
         style="fill:#ffcb7b;fill-opacity:1" /><g
         id="g3996"
         style="fill:#ffcb7b;fill-opacity:1" /><g
         id="g3998"
         style="fill:#ffcb7b;fill-opacity:1" /><g
         id="g4000"
         style="fill:#ffcb7b;fill-opacity:1" /><g
         id="g4002"
         style="fill:#ffcb7b;fill-opacity:1" /><g
         id="g4004"
         style="fill:#ffcb7b;fill-opacity:1" /><g
         id="g4006"
         style="fill:#ffcb7b;fill-opacity:1" /><g
         id="g4008"
         style="fill:#ffcb7b;fill-opacity:1" /><g
         id="g4010"
         style="fill:#ffcb7b;fill-opacity:1" /><g
         id="g4012"
         style="fill:#ffcb7b;fill-opacity:1" /><g
         id="g4014"
         style="fill:#ffcb7b;fill-opacity:1" /><g
         id="g4016"
         style="fill:#ffcb7b;fill-opacity:1" /><g
         id="g4018"
         style="fill:#ffcb7b;fill-opacity:1" /></g><g
       id="g3966"
       transform="matrix(0.27854629,0,0,0.27854629,167.30466,216.64348)"
       style="opacity:0.44926495"><g
         id="g3926"><path
           id="path3928"
           d="m 415.35408,292.84442 v 13.59125 H 210.04709 196.35996 V 292.84442 88.975607 h 13.68713 V 292.84442 h 205.30699 z m -27.37427,-203.868813 -53.87982,8.746823 12.95188,15.72805 -113.96164,92.59042 8.6614,10.51199 113.97489,-92.59042 12.95188,15.71489 19.30141,-50.701753 z m -14.87662,77.539383 -12.49763,-15.17082 v 127.90899 h 27.37425 V 127.42654 l -14.87662,39.08845 z m -94.62044,37.76074 v 74.97743 h 27.37427 v -97.20932 l -27.37427,22.23189 z m -38.66229,31.40302 -2.3991,-2.91999 v 46.4944 h 27.37426 v -63.86828 l -24.97516,20.29387 z m 79.7237,-64.75722 v 108.33163 h 27.37426 V 148.67647 l -27.37426,22.24506 z"
           inkscape:connector-curvature="0"
           style="fill:#ffcb7b;fill-opacity:1" /></g><g
         id="g3930" /><g
         id="g3932" /><g
         id="g3934" /><g
         id="g3936" /><g
         id="g3938" /><g
         id="g3940" /><g
         id="g3942" /><g
         id="g3944" /><g
         id="g3946" /><g
         id="g3948" /><g
         id="g3950" /><g
         id="g3952" /><g
         id="g3954" /><g
         id="g3956" /><g
         id="g3958" /></g><g
       id="g4086"
       transform="matrix(0.13340361,0,0,0.13340361,25,242.94142)"
       style="opacity:0.58893283;fill:#ffcb7b;fill-opacity:1"><g
         id="g4046"
         style="fill:#ffcb7b;fill-opacity:1"><path
           id="path4048"
           d="m 457.259,417.765 v 24.941 H 0 V 14.554 h 24.941 v 403.218 h 432.318 v -0.007 z m -293.19,-150.189 33.633,-77.953 42.32,63.479 54.382,-46.826 37.333,38.886 75.645,-114.701 V 51.965 L 331,167.318 l -37.412,-38.971 -56.117,48.323 -37.412,-56.117 -34.294,79.5 -63.912,-67.029 -67.029,29.617 v 77.655 l 69.724,-32.254 59.521,59.534 z m 243.307,-114.817 -76.382,115.354 -37.412,-38.971 -56.117,48.323 -37.412,-56.117 -34.294,79.5 L 101.847,227.583 34.818,257.2 V 402.7 H 407.377 V 152.759 z"
           inkscape:connector-curvature="0"
           style="fill:#ffcb7b;fill-opacity:1" /></g><g
         id="g4050"
         style="fill:#ffcb7b;fill-opacity:1" /><g
         id="g4052"
         style="fill:#ffcb7b;fill-opacity:1" /><g
         id="g4054"
         style="fill:#ffcb7b;fill-opacity:1" /><g
         id="g4056"
         style="fill:#ffcb7b;fill-opacity:1" /><g
         id="g4058"
         style="fill:#ffcb7b;fill-opacity:1" /><g
         id="g4060"
         style="fill:#ffcb7b;fill-opacity:1" /><g
         id="g4062"
         style="fill:#ffcb7b;fill-opacity:1" /><g
         id="g4064"
         style="fill:#ffcb7b;fill-opacity:1" /><g
         id="g4066"
         style="fill:#ffcb7b;fill-opacity:1" /><g
         id="g4068"
         style="fill:#ffcb7b;fill-opacity:1" /><g
         id="g4070"
         style="fill:#ffcb7b;fill-opacity:1" /><g
         id="g4072"
         style="fill:#ffcb7b;fill-opacity:1" /><g
         id="g4074"
         style="fill:#ffcb7b;fill-opacity:1" /><g
         id="g4076"
         style="fill:#ffcb7b;fill-opacity:1" /><g
         id="g4078"
         style="fill:#ffcb7b;fill-opacity:1" /></g><g
       id="g4206"
       transform="matrix(0.11914062,0,0,0.11914062,25,422.99982)"
       style="opacity:0.58893283;fill:#ffcb7b;fill-opacity:1"><g
         id="g4166"
         style="fill:#ffcb7b;fill-opacity:1"><path
           id="path4168"
           d="M 32,0 H 0 v 480 32 h 32 480 v -32 h -96 v -32 h -32 v 32 h -64 v -32 h -32 v 32 h -64 v -32 h -32 v 32 H 128 V 448 H 96 v 32 H 32 V 0 z m 480,352 v 64 H 64 v -64 h 448 z m -96,-96 v 64 H 64 v -64 h 352 z m -96,-96 v 64 H 64 V 160 H 320 z M 224,64 v 64 H 64 V 64 h 160 z"
           inkscape:connector-curvature="0"
           style="fill:#ffcb7b;fill-opacity:1" /></g><g
         id="g4170"
         style="fill:#ffcb7b;fill-opacity:1" /><g
         id="g4172"
         style="fill:#ffcb7b;fill-opacity:1" /><g
         id="g4174"
         style="fill:#ffcb7b;fill-opacity:1" /><g
         id="g4176"
         style="fill:#ffcb7b;fill-opacity:1" /><g
         id="g4178"
         style="fill:#ffcb7b;fill-opacity:1" /><g
         id="g4180"
         style="fill:#ffcb7b;fill-opacity:1" /><g
         id="g4182"
         style="fill:#ffcb7b;fill-opacity:1" /><g
         id="g4184"
         style="fill:#ffcb7b;fill-opacity:1" /><g
         id="g4186"
         style="fill:#ffcb7b;fill-opacity:1" /><g
         id="g4188"
         style="fill:#ffcb7b;fill-opacity:1" /><g
         id="g4190"
         style="fill:#ffcb7b;fill-opacity:1" /><g
         id="g4192"
         style="fill:#ffcb7b;fill-opacity:1" /><g
         id="g4194"
         style="fill:#ffcb7b;fill-opacity:1" /><g
         id="g4196"
         style="fill:#ffcb7b;fill-opacity:1" /><g
         id="g4198"
         style="fill:#ffcb7b;fill-opacity:1" /></g><path
       id="path4226"
       d="m 234.90257,454.72119 -2.93014,-2.44238 6.54535,-7.84839 31.86082,21.24051 2.49444,-4.53473 -3.32473,-1.8281 9.75833,-5.90484 0.23459,11.40402 -3.32474,-1.82809 -4.49756,8.16482 -32.46772,-21.64261 -4.34864,5.21979 z m 17.96605,-6.31076 11.70926,7.80741 11.36673,-19.88529 3.29495,1.88397 -0.052,-11.40402 -9.8515,5.74484 3.29507,1.88016 -9.33395,16.34466 -11.16574,-7.44259 -4.2202,5.06347 3.19071,2.12595 1.76673,-2.11856 z m -6.67378,8.00852 -3.1907,-2.12595 -11.03171,13.23581 2.93014,2.44238 11.29227,-13.55224 z M 225.8125,480.1875 v -7.625 h 3.8125 V 468.75 h -3.8125 v -7.625 h 3.8125 v -3.8125 h -3.8125 v -7.625 h 3.8125 v -3.8125 h -3.8125 v -7.625 h 3.8125 v -3.8125 h -3.8125 v -7.625 h 3.8125 V 423 H 225.8125 222 v 61 h 61 v -3.8125 h -57.1875 z"
       inkscape:connector-curvature="0"
       style="opacity:0.58893283;fill:#ffcb7b;fill-opacity:1" /></g></svg>